<?xml version="1.0" encoding="UTF-8"?>
<?xml-stylesheet type="text/css" href="svg.css"?>
<svg xmlns="http://www.w3.org/2000/svg" xmlns:xlink="http://www.w3.org/1999/xlink" id="logo" data-name="logo" viewBox="0 0 1600.57 174.18">

    <path id="White_E" data-name="White E" class="cls-1" d="M1367.79,32.49c24.32-11.94,56.85-18.94,94-18.94,83,0,140.45,33.83,140.45,77h0a54.49,54.49,0,0,1-1.83,13.41H1409.2c5.81,16.87,24.56,25.6,52.56,25.6,20.72,0,38-5.18,46.55-13.79h88.25c-18.12,33.56-70.2,54.54-134.8,54.54-76.86,0-134.67-30.72-139.51-72.73m88.52-21.67h104.08c-7.78-14.7-26.33-22.63-53.09-22.63C1435.91,53.25,1417.94,61.27,1410.77,75.88Z" transform="translate(-5.14 -10.05)" />
    
    <path id="White_V" data-name="White V" class="cls-1" d="M1119.37,18.37h67.18l48.66,87.11,48.11-87.11h94.78L1274.59,165.45h-80.33l-74.6-104.62" transform="translate(-5.14 -10.05)" />
    
    <path 
    id="White_A" data-name="White A" class="cls-1" d="M871.82,33.87C895.5,21.18,928,13.78,965.58,13.78c30.32,0,57.41,5.79,78.67,15.81l9.07-11.38h66.1V165.3h-68.56l-7.59-10.41c-21.09,9.76-47.79,15.38-77.69,15.38-70.8,0-123.45-26.54-133.32-65.13m202.81-13.27c0-19.09-24.41-33.43-57.63-33.43-33.42,0-57.63,14.34-57.63,33.43s24.41,33.55,57.63,33.55S1035.07,111.08,1035.07,91.87Z" transform="translate(-5.14 -10.05)" />
    
    <path 
    id="White_W" data-name="White W" class="cls-1" d="M478.35,31.2m0,0L471,18.37h92.87l39,77.23,60.86-76.76h23.94l64.18,77.47,38.39-77.94h90.56l-82,147.08H727.31L676.37,99.57l-49.82,65.88H555.08l-35-61.17" transform="translate(-5.14 -10.05)" />
    
    <path id="White_E-2" data-name="White E" class="cls-1" d="M258.5,54.38c22.65-24.85,68.25-40.83,124.33-40.83,83,0,140.45,33.83,140.45,77h0a54.49,54.49,0,0,1-1.83,13.41H330.27c5.81,16.87,24.56,25.6,52.56,25.6,20.72,0,38-5.18,46.55-13.79h88.25c-18.12,33.56-70.2,54.54-134.8,54.54-52.19,0-95.59-14.16-119.59-36.4m68.6-58H435.92c-7.78-14.7-26.33-22.63-53.09-22.63C357,53.25,339,61.27,331.84,75.88Z" transform="translate(-5.14 -10.05)" />
    
    <path id="White_N" data-name="White N" class="cls-1" d="M263.14,75.77v89.68H174.46V82.77c0-17.12-11.25-25.61-33.57-25.61-27.65,0-43.56,11-43.56,29.75v78.54H8.64V18.37H70.86L83,33.54C102.21,21.34,130.8,14,164.09,14,223.88,14,263.14,38.3,263.14,75.77Z" transform="translate(-5.14 -10.05)" />
    
    <path id="Black_E" data-name="Black E" class="cls-2" d="M1328.06,43c24.33-11.94,56.87-19,94-19,83,0,140.45,33.83,140.45,77h0a54.56,54.56,0,0,1-1.83,13.41H1369.51c5.8,16.87,24.56,25.59,52.56,25.59,20.71,0,38-5.18,46.55-13.79h88.24c-18.12,33.57-70.2,54.54-134.79,54.54-77.12,0-135-30.91-139.56-73.14m88.56-21.26h104.08c-7.78-14.7-26.33-22.63-53.09-22.63C1396.22,63.7,1378.25,71.72,1371.07,86.33Z" transform="translate(-5.14 -10.05)" />
    
    <path id="Black_V" data-name="Black V" class="cls-2" d="M1079.86,28.82h67l48.66,87.11,48.11-87.11h94.78L1234.9,175.91h-80.33L1079.33,70.39" transform="translate(-5.14 -10.05)" />
    
    <path id="Black_A" data-name="Black A" class="cls-2" d="M833,43.87c23.6-12.42,55.76-19.64,92.91-19.64,30.33,0,57.41,5.79,78.67,15.81l9.08-11.38h66.09V175.75h-68.56l-7.59-10.4c-21.08,9.76-47.78,15.38-77.69,15.38-71,0-123.71-26.67-133.39-65.43m202.89-13c0-19.09-24.42-33.43-57.64-33.43-33.42,0-57.63,14.34-57.63,33.43s24.41,33.55,57.63,33.55S995.38,121.53,995.38,102.32Z" transform="translate(-5.14 -10.05)" />
    
    <path id="Black_W" data-name="Black W" class="cls-2" d="M841.11,28.82l-82,147.09H687.62L636.68,110l-49.83,65.89H515.38L431.32,28.82h92.87l39,77.23L624,29.29H648l64.18,77.47,38.39-77.94Z" transform="translate(-5.14 -10.05)" />
</svg>